<?xml version="1.0" standalone="no"?><!DOCTYPE svg PUBLIC "-//W3C//DTD SVG 1.1//EN" "http://www.w3.org/Graphics/SVG/1.1/DTD/svg11.dtd"><svg t="1608643398068" class="icon" viewBox="0 0 1024 1024" version="1.1" xmlns="http://www.w3.org/2000/svg" p-id="1226" xmlns:xlink="http://www.w3.org/1999/xlink" width="16" height="16"><defs><style type="text/css"></style></defs><path d="M860.06 529.22s10.32 24.34 10.32 52.18c0 43.78-10.32 60.9-10.32 60.9L597.47 793.92V680.85z" fill="#5321DB" p-id="1227"></path><path d="M597.47 688.24s8.72 17.1 8.72 43a181.85 181.85 0 0 1-8.72 55.43l256.67-148.22s9.94-20.31 9.94-53.58c0-34.36-9.94-44.84-9.94-44.84z" fill="#FFFFFF" p-id="1228"></path><path d="M225 473.21s12 17.3 12 43.79-12 54.61-12 54.61l372.45 215S611 762.24 611 734c0-29.21-13.58-45.8-13.58-45.8z" fill="#E6E6E6" p-id="1229"></path><path d="M597.47 680.85l262.59-151.63L487.64 314.2 225.02 465.81l372.45 215.04z" fill="#5C37E2" p-id="1230"></path><path d="M225.02 465.81v7.39l372.45 215.04v-7.39L225.02 465.81zM225.02 571.5v7.39l372.45 215.03v-7.39L225.02 571.5z" fill="#6410C6" p-id="1231"></path><path d="M208.78 685.53c-2.27-0.57-5.06 0.91-6.65 3.64s-1.42 5.74 0.06 7.44l-16-15.79z" fill="#5321DB" p-id="1232"></path><path d="M251.83 694.45l-18.74 32.89-30.9-30.73c-1.48-1.7-1.59-4.71-0.06-7.44s4.37-4.2 6.65-3.64z" fill="#E6E6E6" p-id="1233"></path><path d="M254.69 695.59c-6.84-3.95-16.71 0.34-22 9.58s-4.11 19.93 2.73 23.88l218 125.85 19.32-33.47z" fill="#FF8150" p-id="1234"></path><path d="M453.3805 854.860515a14.26 19.26 30 1 0 19.26-33.359298 14.26 19.26 30 1 0-19.26 33.359298Z" fill="#E6E6E6" p-id="1235"></path><path d="M460.1505 843.134531a4.23 5.72 30 1 0 5.72-9.90733 4.23 5.72 30 1 0-5.72 9.90733Z" fill="#5321DB" p-id="1236"></path><path d="M878.54 471l-9.83 5.77-8.92-16.69L878.54 471z" fill="#5C37E2" p-id="1237"></path><path d="M878.54 414.48v7.65l-5.92 3.16s-9.46 15.33-9.46 27.39a30.64 30.64 0 0 0 5.31 16.68 31.18 31.18 0 0 0 4.15 5.15l5.92-3.51v7.71l-262.6 151.63v-64.23z" fill="#5321DB" p-id="1238"></path><path d="M615.94 573.5v49.2L867 477.78l5.65-3.26a48.4 48.4 0 0 1-5.38-21.66c0-13.81 5.38-27.56 5.38-27.56z" fill="#FFFFFF" p-id="1239"></path><path d="M615.94 566.11l262.6-151.63-372.43-215-252 145.47s-1.41 3.18-2.21 3.64-4.17 0-4.17 0l-4.26 2.46z" fill="#5C37E2" p-id="1240"></path><path d="M243.5 351.07v64.23l372.45 215.04v-64.23L243.5 351.07z" fill="#6410C6" p-id="1241"></path><path d="M314.75 347.42l10-5.8c8.71-5 25.43-2.48 36.89 4.81l0.12 0.07c11.46 7.29 14.53 16.89 6.57 21.5l-9 5.2c-17.89-10.37-24.19-14.2-44.58-25.78z m46.66 16.37c5.35-3.15 3.33-9.09-4.7-14.13l-0.12-0.07c-8-5-18.47-6.73-24.18-3.4l-5.27 3.07c12.7 7.45 17.72 10.49 29.37 17.42zM346.37 329.15L369.18 316c3 1.87 4.37 2.76 7.1 4.51l-17.4 10.13c4.58 2.91 6.71 4.28 10.93 7l15.29-9 6.3 4.09-15.25 9c4.32 2.79 6.45 4.18 11 7.09l17.5-10.27 6.95 4.46-22.83 13.19c-17.9-11.37-23.24-15.09-42.4-27.05zM409.56 336.26c-0.84-2.17-1.23-3.24-2-5.36 6.43 0.44 11.54 0 15.48-2.32 3.44-2 3.39-4.69 0.21-6.71l-0.12-0.07c-3-1.9-5.82-2.1-13.35 0.19-8.7 2.64-14.84 3.28-22.49-1.63l-0.12-0.08c-7.11-4.57-8.3-10.72-2.08-14.31 4.56-2.63 10.31-3.38 17.06-3 1.18 2.14 1.73 3.2 2.78 5.28-5.62-0.13-10 0.51-12.87 2.17-3.22 1.87-2.79 4.43 0 6.18l0.12 0.07c3.21 2.06 6 2.08 13.84-0.25 8.66-2.58 15-2.75 22 1.62l0.12 0.08c7.85 4.94 8.7 11.1 2 15-4.99 2.88-12.19 3.88-20.58 3.14zM404.73 295.46l5.35-3.09c18.85 11.47 23.38 14.47 43.17 26.55l-5.54 3.2c-19.57-12.04-24.15-15.12-42.98-26.66zM438.22 301.55l-0.12-0.07c-11.42-7-15.69-17.19-7.24-22.06 4.88-2.82 10.13-3.08 16.71-2.4 1.18 2.06 1.73 3.07 2.77 5.09-4.85-0.41-8.73-0.29-12.3 1.78-5.17 3-2.43 9.55 5.41 14.29l0.12 0.07c8.42 5.1 19.44 6.85 25.28 3.42 2.7-1.58 3.66-3.83 3.27-6l-8.12-4.83-7.09 4.2-6.32-3.76 11.6-6.85 18.29 10.68c1.41 3.9 1.31 8.38-3.83 11.35-9.12 5.24-26.54 2.36-38.43-4.91zM449 269.93l4-2.32c18.27 4.55 24.94 5.53 41.55 10l-29.47-17 3.49-2 44.52 25.71-2.9 1.68c-20.11-6.41-27.06-7.45-44.24-11.2l31.84 18.38-4.33 2.51c-21.4-12.37-25.55-14.81-44.46-25.76z" fill="#FFFFFF" p-id="1242"></path><path d="M626.55 559.9s-0.93 2.7-2.72 3.68a4.28 4.28 0 0 1-3.66 0l-372.45-215s2.44 0.35 3.72-0.45a10 10 0 0 0 2.66-3.24z" fill="#6410C6" p-id="1243"></path></svg>