<?xml version="1.0" standalone="no"?><!DOCTYPE svg PUBLIC "-//W3C//DTD SVG 1.1//EN" "http://www.w3.org/Graphics/SVG/1.1/DTD/svg11.dtd"><svg t="1608737862302" class="icon" viewBox="0 0 1024 1024" version="1.1" xmlns="http://www.w3.org/2000/svg" p-id="1185" width="64" height="64" xmlns:xlink="http://www.w3.org/1999/xlink"><defs><style type="text/css"></style></defs><path d="M819.292 623.785c-40.844-40.844-88.387-72.547-140.151-94.102 69.587-51.392 114.809-133.97 114.809-226.921 0-155.467-126.483-281.951-281.951-281.951s-281.951 126.483-281.951 281.951c0 92.95 45.221 175.529 114.809 226.921-51.762 21.555-99.308 53.26-140.151 94.102-82.080 82.080-127.284 191.213-127.284 307.292 0 32.174 26.082 58.254 58.254 58.254s58.254-26.080 58.254-58.254c0-175.385 142.685-318.068 318.068-318.068 175.385 0 318.068 142.685 318.068 318.068 0 32.174 26.080 58.254 58.254 58.254s58.254-26.080 58.254-58.254c0-116.081-45.204-225.211-127.284-307.292zM512 137.32c91.225 0 165.442 74.218 165.442 165.442s-74.218 165.442-165.442 165.442-165.442-74.218-165.442-165.442 74.218-165.442 165.442-165.442z" p-id="1186"></path></svg>