<?xml version="1.0" standalone="no"?><!DOCTYPE svg PUBLIC "-//W3C//DTD SVG 1.1//EN" "http://www.w3.org/Graphics/SVG/1.1/DTD/svg11.dtd"><svg t="1608643435025" class="icon" viewBox="0 0 1024 1024" version="1.1" xmlns="http://www.w3.org/2000/svg" p-id="1819" xmlns:xlink="http://www.w3.org/1999/xlink" width="16" height="16"><defs><style type="text/css"></style></defs><path d="M463.56 828.18v14.03l401.41-231.75v-14.03L463.56 828.18z" fill="#5C37E2" p-id="1820"></path><path d="M463.56 828.18l401.41-231.75-257.65-148.76-401.41 231.76 257.65 148.75z" fill="#765EEF" p-id="1821"></path><path d="M577.75 750.88l154.01-88.92-98.85-57.07-154.01 88.92 98.85 57.07z" fill="#5C37E2" p-id="1822"></path><path d="M397.6 731.35l299.9-173.14-108.36-62.42-299.9 173.14 108.36 62.42z" fill="#6410C6" p-id="1823"></path><path d="M205.91 383.23l401.41-231.75v296.19L205.91 679.43v-296.2z" fill="#5C37E2" p-id="1824"></path><path d="M221.25 395.11l373.99-216.69v264.61L221.25 658.96V395.11z" fill="#FFFFFF" p-id="1825"></path><path d="M463.56 828.18v14.03L205.91 693.46v-14.03l257.65 148.75z" fill="#6410C6" p-id="1826"></path><path d="M199.8 379.7l6.11 3.53v310.23l-6.11-3.53V379.7z" fill="#6410C6" p-id="1827"></path><path d="M601.21 147.95l6.11 3.53-401.41 231.75-6.11-3.53 401.41-231.75z" fill="#765EEF" p-id="1828"></path><path d="M692.62 360.17l-143.56 81.78V276.82l143.56-82.24z" fill="#6410C6" p-id="1829"></path><path d="M690.16 198.81v159.93l-138.64 79v-159.5l138.64-79.42m5.09-8.78L546.43 275.3v171.17l148.82-84.77V190z" fill="#FFBC17" p-id="1830"></path><path d="M618.35 284.2l-17.56 10c-7.19 31.61-10.78 47.41-18 79l13.75-7.84 4.22-20.05 16.94-9.67 4.55 15 14.49-8.27c-7.33-23.22-11.02-34.87-18.39-58.17z m-15.61 48.41l3.52-16.6c1-4.55 1.82-10.24 2.69-14.79l0.17-0.09c0.87 3.56 1.95 8 3 11.53l3.64 12.51zM657.36 330.72l-12.42 7.09v-47.72l12.42-7.1zM651.14 281.77c-3.44 2-6.21 0.35-6.21-3.61a13.6 13.6 0 0 1 6.21-10.71c3.44-2 6.21-0.35 6.21 3.61a13.6 13.6 0 0 1-6.21 10.71zM672.44 176.87l-148.25 85.59 22.24 12.84 148.82-85.27-22.81-13.16z" fill="#FF9C52" p-id="1831"></path><path d="M524.19 433.63l22.24 12.84V275.3l-22.24-12.84v171.17z" fill="#FF6E52" p-id="1832"></path><path d="M484.31 286.21L336.05 371.8l22.24 12.84 148.82-85.27-22.8-13.16z" fill="#FF9C52" p-id="1833"></path><path d="M336.05 542.97l22.24 12.84V384.64l-22.24-12.84v171.17z" fill="#FF6E52" p-id="1834"></path><path d="M505.23 470l-145.06 82.59V385.72l145.06-83.11z" fill="#6410C6" p-id="1835"></path><path d="M502.08 308.06v160l-138.75 79.1V387.54l138.75-79.48m5-8.69l-148.79 85.27v171.17L507.11 471V299.38z" fill="#FFBC17" p-id="1836"></path><path d="M452.45 373.16l-39.73 22.74-19.87 20.64 19.87-2.08 39.73-22.72 19.87-20.65z" fill="#FEE09B" p-id="1837"></path><path d="M432.59 482.49c10.3-30.34 15.41-45.49 25.76-75.87l-51.54 29.45c10.32 18.56 15.47 27.84 25.78 46.42z" fill="#FFBC17" p-id="1838"></path><path d="M406.82 436.07l5.9-21.61 39.73-22.72 5.9 14.88z" fill="#FF8C00" p-id="1839"></path><path d="M452.45 391.74l19.87-20.65 11.68 6.08-25.69 29.45zM412.84 414.39L393 416.47l-11.72 19.46 25.69 0.06z" fill="#FFBC17" p-id="1840"></path><path d="M432.59 482.49c10.3-30.34 15.41-45.49 25.76-75.87L484 377.17q-25.67 52.67-51.41 105.32z" fill="#FF8C00" p-id="1841"></path><path d="M381.25 435.94c20.54 18.59 30.8 27.9 51.34 46.55-10.26-18.6-15.39-27.9-25.65-46.49z" fill="#FF8C00" p-id="1842"></path></svg>