<?xml version="1.0" standalone="no"?><!DOCTYPE svg PUBLIC "-//W3C//DTD SVG 1.1//EN" "http://www.w3.org/Graphics/SVG/1.1/DTD/svg11.dtd"><svg t="1608643465913" class="icon" viewBox="0 0 1024 1024" version="1.1" xmlns="http://www.w3.org/2000/svg" p-id="2294" xmlns:xlink="http://www.w3.org/1999/xlink" width="16" height="16"><defs><style type="text/css"></style></defs><path d="M303.39 378.48l394.24-227.61v360.55L303.39 739.03V378.48z" fill="#F7F7F7" p-id="2295"></path><path d="M697.63 150.87L303.39 378.48l-30.26-17.52 394.24-227.61 30.26 17.52z" fill="#F2F2F2" p-id="2296"></path><path d="M303.39 739.03l-30.26-17.52V360.96l30.26 17.52v360.55z" fill="#CCCCCC" p-id="2297"></path><path d="M254.26 497.85L648.5 270.23v360.55L254.26 858.4V497.85z" fill="#765EEF" p-id="2298"></path><path d="M648.5 270.23L254.26 497.85 224 480.33l394.24-227.62 30.26 17.52z" fill="#5C37E2" p-id="2299"></path><path d="M254.26 858.4L224 840.88V480.33l30.26 17.52V858.4z" fill="#6410C6" p-id="2300"></path><path d="M617.56 340.67l-0.06 17.85-324.81 188.07v-18.35l324.87-187.57zM617.56 398.23l-0.06 17.84-324.81 188.07v-18.35l324.87-187.56zM382.49 587.14l-0.07 17.85-89.73 52.22v-18.35l89.8-51.72zM505.83 572.14c-2.91-0.91-6.63 0.8-8.9 4.22s-2.28 7.34-0.49 9.66l-15.91-17.69a1.6 1.6 0 0 1 1.6-2.61z" fill="#FF9C52" p-id="2301"></path><path d="M561 587l-26.82 41.27L496.44 586c-1.79-2.32-1.71-6.24 0.49-9.66s6-5.12 8.9-4.22z" fill="#F2F2F2" p-id="2302"></path><path d="M564.67 588.68c-8.58-5.64-21.72-0.82-29.34 10.76s-6.85 25.56 1.73 31.21l273.4 179.87 27.61-42z" fill="#FF9C52" p-id="2303"></path><path d="M808.05 748.8c-8.58-5.64-21.72-0.82-29.34 10.76s-6.85 25.56 1.73 31.21l30 19.74 27.61-42z" fill="#6410C6" p-id="2304"></path><path d="M810.512881 810.470325a18.54 25.04 33.34 1 0 27.524278-41.838028 18.54 25.04 33.34 1 0-27.524278 41.838028Z" fill="#765EEF" p-id="2305"></path></svg>