<?xml version="1.0" standalone="no"?><!DOCTYPE svg PUBLIC "-//W3C//DTD SVG 1.1//EN" "http://www.w3.org/Graphics/SVG/1.1/DTD/svg11.dtd"><svg t="1608644001735" class="icon" viewBox="0 0 1024 1024" version="1.1" xmlns="http://www.w3.org/2000/svg" p-id="2583" data-spm-anchor-id="a313x.7781069.0.i13" xmlns:xlink="http://www.w3.org/1999/xlink" width="16" height="16"><defs><style type="text/css"></style></defs><path d="M629 517.2l-76.86-44.15V331.27L629 375.41M460.55 614.41l76.86 44.15V428.3l-76.86-44.15" fill="#6410C6" p-id="2584" data-spm-anchor-id="a313x.7781069.0.i14" class=""></path><path d="M406.85 503.68l102.9-59.41v45.06l-73.08 42.19v46.72L501 541.11v45.06l-64.34 37.13v48.36l74.06-42.76V674l-103.87 60zM537.41 428.3l27.67-16L629 517.2V375.41l29.62-17.1v230.26l-25.52 14.74L567 495.08v146.37l-29.62 17.1z" fill="#5C37E2" p-id="2585" data-spm-anchor-id="a313x.7781069.0.i18" class=""></path><path d="M329.99 459.53l76.86 44.15v230.26l-76.86-44.15V459.53z" fill="#6410C6" p-id="2586"></path><path d="M432.88 400.12l76.86 44.15-102.89 59.41-76.86-44.15 102.89-59.41zM537.41 428.3l-76.86-44.15 27.67-15.98 76.86 44.15-27.67 15.98zM629 375.41l-76.86-44.14 29.62-17.1 76.86 44.14-29.62 17.1z" fill="#765EEF" p-id="2587"></path><path d="M633.1 603.31l-66.24-38.27 0.17-69.96 66.07 108.23z" fill="#6410C6" p-id="2588"></path><path d="M500.97 541.11l-41.42-23.91-22.89 14.32v46.72l64.31-37.13zM510.72 628.9l-41.9-24.19-32.16 18.59v48.36l74.06-42.76z" fill="#765EEF" p-id="2589" data-spm-anchor-id="a313x.7781069.0.i15" class="selected"></path><path d="M282.56 570.76l-64.33-37.14c-4.78 90.71 28.44 171.21 96.15 210.3l64.34 37.18-30.14-22.1c-47.37-43.34-70.03-112.21-66.02-188.24zM623.23 209.1c-109.35-63.16-267.13 5.41-352.43 153.12a408.76 408.76 0 0 0-36.48 83.15l-19.83-11.45 34.68 92.23 70.93-31.26-21.45-12.39a409.14 409.14 0 0 1 36.51-83.16c76.78-133 212.3-201.8 318.3-168.1l34.07 15z" fill="#FF8150" p-id="2590" data-spm-anchor-id="a313x.7781069.0.i17" class="selected"></path><path d="M719.54 416.92L783.81 454c4-89.69-29.17-169.08-96.3-207.82a172.54 172.54 0 0 0-34.07-15c46.81 42.92 69.49 110.73 66.1 185.74zM683.7 482.58l23.08 13.33a406.61 406.61 0 0 1-40 94.9C590 723.72 454.57 792.54 348.58 759a171.92 171.92 0 0 0 30.15 22.13c109.35 63.07 267.13-5.5 352.36-153.13a406.46 406.46 0 0 0 39.6-93.62l23.16 12.94-43.77-87.41z" fill="#E6E6E6" p-id="2591" data-spm-anchor-id="a313x.7781069.0.i16" class="selected"></path></svg>