<?xml version="1.0" standalone="no"?><!DOCTYPE svg PUBLIC "-//W3C//DTD SVG 1.1//EN" "http://www.w3.org/Graphics/SVG/1.1/DTD/svg11.dtd"><svg t="1608643418787" class="icon" viewBox="0 0 1024 1024" version="1.1" xmlns="http://www.w3.org/2000/svg" p-id="1524" xmlns:xlink="http://www.w3.org/1999/xlink" width="16" height="16"><defs><style type="text/css"></style></defs><path d="M299.3 372.62v238.84c0 67.44 90.77 144.92 202.73 144.92s202.73-77.49 202.73-144.92V372.62z" fill="#6410C6" p-id="1525"></path><path d="M311.63 621.77v185.41c0 5.47 7.36 9.9 16.44 9.9s16.44-4.43 16.44-9.9V621.77z" fill="#FF6E52" p-id="1526"></path><path d="M311.63 621.77a16.44 9.9 0 1 0 32.88 0 16.44 9.9 0 1 0-32.88 0Z" fill="#FF9C52" p-id="1527"></path><path d="M502.03 634.83l347.93-200.88-347.92-200.87-347.93 200.87 347.92 200.88z" fill="#765EEF" p-id="1528"></path><path d="M502.03 634.83v11.55L154.11 445.69v-11.74l347.92 200.88z" fill="#5C37E2" p-id="1529"></path><path d="M849.96 433.95l-0.17 10.14-347.76 202.29v-11.55l347.93-200.88z" fill="#614FE8" p-id="1530"></path><path d="M483.95 433.95a18.08 10.89 0 1 0 36.16 0 18.08 10.89 0 1 0-36.16 0Z" fill="#FF9C52" p-id="1531"></path><path d="M329.29 621.77h-3v-88.41l175-100.71 1.49 2.6-173.49 99.84v86.68z" fill="#FF9C52" p-id="1532"></path><path d="M459.36 577.12l9.25-5.35c8-4.64 23.45-2.29 34 4.43l0.11 0.07c10.57 6.72 13.39 15.58 6.05 19.82l-8.28 4.79c-16.49-9.55-22.33-13.05-41.13-23.76z m43 15.09c4.93-2.91 3.07-8.38-4.33-13l-0.11-0.07c-7.41-4.65-17-6.2-22.29-3.13l-4.86 2.84c11.7 6.87 16.33 9.67 27.08 16.06zM488.52 560.28l21-12.15c2.73 1.72 4 2.55 6.55 4.16l-16 9.34c4.22 2.68 6.18 3.95 10.08 6.46l14.1-8.3 5.81 3.77-14.06 8.31c4 2.58 5.95 3.85 10.12 6.54l16.14-9.47 6.41 4.11-21 12.17c-16.57-10.48-21.49-13.91-39.15-24.94zM546.78 566.84c-0.77-2-1.13-3-1.82-4.94 5.93 0.4 10.64 0 14.28-2.14 3.18-1.86 3.13-4.33 0.2-6.19l-0.11-0.07c-2.76-1.75-5.37-1.93-12.31 0.18-8 2.44-13.69 3-20.73-1.5l-0.11-0.07c-6.56-4.21-7.65-9.89-1.92-13.19 4.21-2.43 9.51-3.12 15.73-2.73 1.09 2 1.59 2.95 2.56 4.87-5.18-0.12-9.22 0.47-11.86 2-3 1.73-2.57 4.09 0 5.7l0.11 0.07c3 1.89 5.55 1.91 12.76-0.23 8-2.38 13.84-2.54 20.25 1.49l0.11 0.07c7.24 4.56 8 10.24 1.81 13.82-4.58 2.6-11.22 3.56-18.95 2.86zM542.32 529.22l4.93-2.85c17.38 10.57 21.56 13.35 39.8 24.48l-5.11 3c-18.04-11.15-22.26-13.99-39.62-24.63zM573.2 534.84l-0.11-0.06c-10.53-6.44-14.46-15.85-6.68-20.34 4.5-2.6 9.34-2.84 15.41-2.21 1.09 1.9 1.59 2.83 2.56 4.69-4.47-0.38-8.06-0.27-11.35 1.65-4.77 2.78-2.24 8.8 5 13.17l0.11 0.07c7.76 4.7 17.92 6.31 23.31 3.15 2.49-1.46 3.38-3.53 3-5.57l-7.52-4.39-6.54 3.87-5.82-3.47 10.7-6.32 16.87 9.85c1.3 3.59 1.21 7.72-3.54 10.46-8.39 4.81-24.44 2.15-35.4-4.55zM583.09 505.68l3.7-2.14c16.85 4.2 23 5.09 38.31 9.21l-27.17-15.64 3.22-1.86L642.2 519l-2.68 1.55c-18.55-5.91-24.95-6.87-40.79-10.32l29.35 16.95-4 2.31c-19.69-11.49-23.51-13.71-40.99-23.81z" fill="#FFFFFF" p-id="1533"></path></svg>