<?xml version="1.0" standalone="no"?><!DOCTYPE svg PUBLIC "-//W3C//DTD SVG 1.1//EN" "http://www.w3.org/Graphics/SVG/1.1/DTD/svg11.dtd"><svg t="1608643406593" class="icon" viewBox="0 0 1024 1024" version="1.1" xmlns="http://www.w3.org/2000/svg" p-id="1378" xmlns:xlink="http://www.w3.org/1999/xlink" width="16" height="16"><defs><style type="text/css"></style></defs><path d="M199.31 513.14l198.31-113.95L316.43 344 199.31 513.14z" fill="#FF8150" p-id="1379"></path><path d="M453.27 528.1l343.19-115.07v260.09L453.27 871.68V528.1z" fill="#5321DB" p-id="1380"></path><path d="M453.27 871.68L239.92 748.5V488.41l91.89-128.25 121.46 247.38v264.14z" fill="#6410C6" p-id="1381"></path><path d="M809.04 435.64L437.42 650.62 316.43 344l371.62-214.98 120.99 306.62z" fill="#E6E6E6" p-id="1382"></path><path d="M662.04 751.23V613.89l-66.17 38.21v137.42l66.17-38.29zM557.91 733.13V673.8l-52.41 30.26v59.39l52.41-30.32zM750.29 622.04v-59.33l-52.41 30.26v59.4l52.41-30.33z" fill="#FF8150" p-id="1383"></path><path d="M312.047431 559.052496a48.49 33.84 57.1 1 0 56.825472-36.762046 48.49 33.84 57.1 1 0-56.825472 36.762046Z" fill="#FF8150" p-id="1384"></path><path d="M321.9 556.66c-13.19-20.78-13.12-44.64-0.8-56.17a24.24 24.24 0 0 0-7.47 3.08c-15.78 10-16.94 36.46-2.59 59.07s38.77 32.83 54.55 22.82a23.79 23.79 0 0 0 3.39-2.91c-15.28 3.63-34.84-6.55-47.08-25.89z" fill="#FFA96E" p-id="1385"></path><path d="M656.13 266.36l57.84-33.4v152.41l-57.84 33.57V266.36z" fill="#5321DB" p-id="1386"></path><path d="M656.13 266.44l57.25-33.06-57.26-33.06-57.25 33.06 57.26 33.06z" fill="#4514CA" p-id="1387"></path><path d="M656.13 254.66l36.85-21.28-36.85-21.28-36.86 21.28 36.86 21.28z" fill="#FF8150" p-id="1388"></path><path d="M598.87 233.38v40.45l57.26 145.11v-152.5l-57.26-33.06z" fill="#6410C6" p-id="1389"></path></svg>