<?xml version="1.0" standalone="no"?><!DOCTYPE svg PUBLIC "-//W3C//DTD SVG 1.1//EN" "http://www.w3.org/Graphics/SVG/1.1/DTD/svg11.dtd"><svg t="1608643381544" class="icon" viewBox="0 0 1024 1024" version="1.1" xmlns="http://www.w3.org/2000/svg" p-id="1031" width="16" height="16" xmlns:xlink="http://www.w3.org/1999/xlink"><defs><style type="text/css"></style></defs><path d="M452.82 632.22l308.07-177.87V736.1L452.82 913.96V632.22z" fill="#5321DB" p-id="1032"></path><path d="M760.89 454.35L452.82 632.22 277.87 531.21l308.07-177.87 174.95 101.01z" fill="#4514CA" p-id="1033"></path><path d="M452.82 913.96L277.87 812.95V531.21l174.95 101.01v281.74z" fill="#6410C6" p-id="1034"></path><path d="M360.74 483.48l174.95 101.01 25.53 47.73 46.1-61.35 46.6 7.82 24.25-76.28-172.26-102.56-145.17 83.63z" fill="#E6E6E6" p-id="1035"></path><path d="M535.69 584.49l25.53 47.73 46.1-61.35 46.6 7.82 24.25-76.28-0.26-0.15-142.32 82.17 0.1 0.06zM685.34 255.08l-154.23 89.04V522.2l154.18-89.01 0.05-178.11z" fill="#FFFFFF" p-id="1036"></path><path d="M386.28 260.5l144.83 83.62V522.2l-144.83-83.61V260.5z" fill="#CCCCCC" p-id="1037"></path><path d="M540.51 171.46l144.83 83.62-154.23 89.04-144.83-83.62 154.23-89.04z" fill="#4514CA" p-id="1038"></path><path d="M685.33 306.25l0.01-51.17-154.23 89.04v51.16l154.22-89.03z" fill="#5321DB" p-id="1039"></path><path d="M437.26 468.02V342.95l93.85 52.33v-51.16L386.28 260.5v178.09l50.98 29.43z" fill="#6410C6" p-id="1040"></path><path d="M587.69 596.99l14.42 23.96-26.22 221.96 62.51-36.09-27.07-191.19 15.83-41.43-19.84-3.33-19.63 26.12z" fill="#FF8150" p-id="1041"></path></svg>