<?xml version="1.0" standalone="no"?><!DOCTYPE svg PUBLIC "-//W3C//DTD SVG 1.1//EN" "http://www.w3.org/Graphics/SVG/1.1/DTD/svg11.dtd"><svg t="1608643452333" class="icon" viewBox="0 0 1024 1024" version="1.1" xmlns="http://www.w3.org/2000/svg" p-id="1977" xmlns:xlink="http://www.w3.org/1999/xlink" width="16" height="16"><defs><style type="text/css"></style></defs><path d="M305.28 552.08l398.6-224.39-104.47-62.94L199 490.21l106.28 61.87z" fill="#5C37E2" p-id="1978"></path><path d="M305.28 552.08v303.74l397.44-229.47 1.16-304.4-398.6 230.13zM326.27 482.48l398.61-230.14-139.02-82.37-400.41 231.2 140.82 81.31z" fill="#5C37E2" p-id="1979"></path><path d="M415.71 304.88l0.32 62.69-29.82-17.22v-62.53l29.5 17.06zM508.54 272.31l-29.15-17.27v42.29l29.15 16.83v-41.85z" fill="#6410C6" p-id="1980"></path><path d="M415.71 304.88l0.32 62.69 15.79-9.12-0.11-41.79 76.83-44.35v41.85l16-9.24v-62.87l-108.83 62.83z" fill="#5321DB" p-id="1981"></path><path d="M415.71 304.88l108.83-62.83-29.14-17.27-109.19 63.04 29.5 17.06z" fill="#6F54EF" p-id="1982"></path><path d="M327.06 713.72l-0.79-231.24-140.82-81.31v385.46l119.83 69.19V552.08L199 490.21v-61.6l113.49 65.52v211.06l14.57 8.53z" fill="#6410C6" p-id="1983"></path><path d="M199 490.21l54.01-30.41L199 428.61" fill="#401CC6" p-id="1984"></path><path d="M476.5 721.68l-32.18 18.57v-16.8l12.43-13.17 19.75 11.4z" fill="#FF6E52" p-id="1985"></path><path d="M461.59 662.17l8.24 4.07 6.67 36.22v19.22l-19.75-11.4 4.84-48.11z" fill="#FF6E52" p-id="1986"></path><path d="M461.59 662.17v35.71h-35.4l4.41-17.81 30.99-17.9z" fill="#FF6E52" p-id="1987"></path><path d="M438.59 691.15v60.34l43.64-25.2V666z m37.91 30.53l-32.17 18.58v-16.8l32.17-18.58z" fill="#FF9C52" p-id="1988"></path><path d="M462.28 655.11l-43.64 25.2 19.95 10.84L482.23 666z m-31.69 25l31-17.9 8.23 4.07-30.92 17.85z" fill="#FFB583" p-id="1989"></path><path d="M438.59 751.49l-19.95-10.84v-60.34l19.95 10.84v60.34z" fill="#FF6E52" p-id="1990"></path><path d="M453.15 755.28l-2.24-1.23v-20a10.73 10.73 0 0 0-6.65-10.05l0.06-0.5 1.81-0.87 8 4 1.68 18.23z" fill="#6410C6" p-id="1991"></path><path d="M470.89 708.29l-24.76 14.3a12.48 12.48 0 0 1 7 11.37v21.32l25-15.08v-20.86c-0.01-9.28-7.24-11.05-7.24-11.05z" fill="#5321DB" p-id="1992"></path><path d="M436.36 682.85l-1.86-0.93v-30.21l1.96-1.13-0.1 32.27z" fill="#6410C6" p-id="1993"></path><path d="M630.78 633.57l-32.17 18.57v-16.8l12.44-13.17 19.73 11.4zM615.88 574.06l8.24 4.07 6.66 36.22v19.22l-19.73-11.4 4.83-48.11z" fill="#FF6E52" p-id="1994"></path><path d="M615.88 574.06v35.71h-35.39l4.39-17.82 31-17.89z" fill="#FF6E52" p-id="1995"></path><path d="M592.88 603v60.34l43.64-25.2v-60.3z m37.91 30.53l-32.17 18.58v-16.8l32.17-18.58z" fill="#FF9C52" p-id="1996"></path><path d="M616.57 567l-43.64 25.2 19.95 10.8 43.64-25.2z m-31.69 25l31-17.9 8.23 4.07L593.2 596z" fill="#FFB583" p-id="1997"></path><path d="M592.88 663.38l-19.95-10.84V592.2l19.95 10.83v60.35z" fill="#FF6E52" p-id="1998"></path><path d="M607.44 667.17l-2.24-1.23V646a10.73 10.73 0 0 0-6.65-10.14l0.06-0.5 1.81-0.87 8 4 1.68 18.23z" fill="#6410C6" p-id="1999"></path><path d="M625.18 620.18l-24.76 14.3a12.48 12.48 0 0 1 7 11.37v21.32l25-15.08v-20.86c-0.01-9.28-7.24-11.05-7.24-11.05z" fill="#5321DB" p-id="2000"></path><path d="M590.65 594.74l-1.86-0.93v-31.24l2.16-1.19-0.3 33.36z" fill="#6410C6" p-id="2001"></path><path d="M326.27 482.48l0.83 231.24 109.36-63.14-0.1 32.27 2.55 1.24 22.45-12.94-0.14-34.87 129.73-74.9-0.3 33.36 2.55 1.24 21.5-12.41v-35.9l109.84-63.42 0.34-231.91-398.61 230.14z" fill="#5321DB" p-id="2002"></path><path d="M660 647.67c8.72-36.36 64.57-40 72.89-39.76s84.23 4.46 75.3 52.52-24.54 92.85-24.54 92.85l-114-8.21z" fill="#E6E6E6" p-id="2003"></path><path d="M654.95 652.88l-1.84 134.2c0 26.56 35.74 48.08 79.84 48.08s79.84-21.53 79.84-48.08l1.84-134.2s-13.24 47.6-79.84 44.74c-65.72-2.81-79.84-44.74-79.84-44.74z" fill="#E6E6E6" p-id="2004"></path><path d="M666.86 766.35a11.25 11.25 0 0 1-2.28-4.7c-3 0.88-5.73 0.81-7.71-0.37s-3.54-3.72-4.23-7.1l12.57-18.43L685 702.22l-17.15-9.89c-8.7 4.26-17.33 12.52-23.82 23.79-5.62 9.73-8.74 20.19-8.85 29.51-0.07 10.5 3.67 18.5 10.57 22.46l17.65 10.18c1 0.15-3.62-4.41-2.59-4.41a27.09 27.09 0 0 0 11.6-2.86 7.85 7.85 0 0 0 0.81-0.37v-1.76a8 8 0 0 1-4.48-0.92 6.4 6.4 0 0 1-1.88-1.6z" fill="#E6E6E6" p-id="2005"></path><path d="M685 763.7a29.55 29.55 0 0 1-3.23 2.2 19.28 19.28 0 0 1-8.55 3 8 8 0 0 1-4.48-0.92 6.4 6.4 0 0 1-1.84-1.62c-1-1.17-4.63-4.59-5.11-6.49a23.18 23.18 0 0 0 5.36-2.39 39 39 0 0 0 3.23-2.2z" fill="#CCCCCC" p-id="2006"></path><path d="M671.23 731.81c-4.59 7.89-7.23 16.59-7.3 23.82a25 25 0 0 0 0.66 6 11.25 11.25 0 0 0 2.28 4.7 6.4 6.4 0 0 0 1.84 1.62 8 8 0 0 0 4.48 0.92 19.28 19.28 0 0 0 8.55-3 29.55 29.55 0 0 0 3.23-2.2v13.62a28.64 28.64 0 0 1-12.41 3.23 19 19 0 0 1-9.65-2.53 17.73 17.73 0 0 1-5.1-4.37c-3.67-4.4-5.54-10.61-5.47-18.13 0-0.73 0-1.5 0.11-2.28 0.48-8.7 3.56-18.28 8.74-27.24 6.5-11.27 15.12-19.53 23.79-23.79v13.51a53.52 53.52 0 0 0-13.75 16.12z" fill="#FFFFFF" p-id="2007"></path><path d="M732.79 697.1c-38.63 0-56.17-13-57.37-17.61 12.44-11.67 34.17-19.4 58.9-19.4s46.49 7.74 58.93 19.42c-6.59 7.08-21.83 17.59-60.46 17.59z" fill="#FF9C52" p-id="2008"></path><path d="M734.78 604.8c-44.09 0-79.84 21.53-79.84 48.08S690.69 701 734.78 701s79.84-21.53 79.84-48.08-35.75-48.12-79.84-48.12z m0 90.08c-38.51 0-69.72-18.8-69.72-42s31.22-42 69.72-42 69.72 18.8 69.72 42-31.21 42-69.72 42z" fill="#FFFFFF" p-id="2009"></path></svg>