<?xml version="1.0" standalone="no"?><!DOCTYPE svg PUBLIC "-//W3C//DTD SVG 1.1//EN" "http://www.w3.org/Graphics/SVG/1.1/DTD/svg11.dtd"><svg t="1608643459304" class="icon" viewBox="0 0 1024 1024" version="1.1" xmlns="http://www.w3.org/2000/svg" p-id="2144" xmlns:xlink="http://www.w3.org/1999/xlink" width="16" height="16"><defs><style type="text/css"></style></defs><path d="M860.320103 368.178785l-161.043333-92.992096-584.156638 337.274446 161.013957 92.962719 584.186014-337.245069z" fill="#4514CA" p-id="2145"></path><path d="M731.635258 376.051754l-47.090928-27.202869-441.870357 255.107681 47.105615 27.18818L731.635258 376.051754zM336.56206 740.323431v283.676569L56.557584 862.486638V640.413111l58.533171-27.966665 221.471305 127.876985z" fill="#6410C6" p-id="2146"></path><path d="M920.704009 464.475766l-0.117507 221.118783-584.024442 338.405451V740.323431l555.514308-320.720648 28.627641 44.872983z" fill="#5321DB" p-id="2147"></path><path d="M276.148777 705.438543l60.413283 96.649501 584.141949-337.626967-60.398594-96.29698-584.156638 337.274446zM115.120132 612.461135l584.156638-337.274446-58.547859 27.966664L56.557584 640.413111l58.562548-27.951976z" fill="#462FEA" p-id="2148"></path><path d="M850.611088 589.958546l-0.08813 51.365244-443.867977 257.208118v-51.982155L850.611088 589.958546z" fill="#4514CA" p-id="2149"></path><path d="M204.733902 247.734117L633.810686 0s48.471635 12.117909 48.471635 66.229879v338.302632L289.779588 631.159435l-36.58874-21.121882V313.963996c0.014688-54.11197-48.456946-66.229879-48.456946-66.229879z" fill="#E6E6E6" p-id="2150"></path><path d="M850.611088 589.958546l-44.505774 25.719343 44.417644 25.645901 0.08813-51.365244z" fill="#6410C6" p-id="2151"></path><path d="M386.634727 342.988223l-58.606613 33.783261v-70.768586l58.606613-33.783261z" fill="#FFFFFF" p-id="2152"></path><path d="M417.171857 438.96206L297.44692 508.07086v-100.850377l119.69556-69.035358zM386.634727 289.36097l-58.606613 33.78326v-17.185398l58.606613-33.78326z" fill="#5321DB" p-id="2153"></path><path d="M357.316732 372.673428L328.747845 389.241914l11.001592 11.750699 17.626049-18.022635 17.626049-2.26201 11.001592-24.441454z" fill="#FFFFFF" p-id="2154"></path><path d="M359.725626 396.116073l4.274317-14.115528-6.683211 0.866614-6.668521 6.844782 4.274316 9.165546-11.089722 82.416467 13.483927-7.784838 13.483928-7.784839z" fill="#FF9C52" p-id="2155"></path><path d="M967.442416 697.800588l-151.833723-87.660216-409.085907 236.174367-0.293768 20.284644 134.428 77.613369 426.785398-246.412164z" fill="#E6E6E6" p-id="2156"></path><path d="M411.472768 806.039217l22.238198-12.661379-5.449387-3.143312-22.032561 12.720132 5.24375 3.084559z" fill="#FF8150" p-id="2157"></path><path d="M411.472768 806.039217v18.566105l-5.24375-3.025805v-18.624859l5.24375 3.084559z" fill="#FF6E52" p-id="2158"></path><path d="M433.710966 793.377838v18.052012l-22.238198 13.175472v-18.566105l22.238198-12.661379zM636.337087 137.630065l-0.088131 24.999613-173.851595 101.129456v-25.704655L636.337087 137.630065zM588.203285 245.530861l-0.08813 24.999613-125.717794 73.162791v-25.704654l125.805924-72.45775zM588.203285 320.573765l-0.08813 24.999612-125.717794 73.162792v-25.704655l125.805924-72.457749z" fill="#FF9C52" p-id="2159"></path></svg>