<?xml version="1.0" standalone="no"?><!DOCTYPE svg PUBLIC "-//W3C//DTD SVG 1.1//EN" "http://www.w3.org/Graphics/SVG/1.1/DTD/svg11.dtd"><svg t="1608619558313" class="icon" viewBox="0 0 1024 1024" version="1.1" xmlns="http://www.w3.org/2000/svg" p-id="1044" width="16" height="16" xmlns:xlink="http://www.w3.org/1999/xlink"><defs><style type="text/css"></style></defs><path d="M490.7 821.57v38.73l139.11-80.32v-38.72L490.7 821.57z" fill="#5321DB" p-id="1045"></path><path d="M490.7 821.57l139.11-80.31-139.12-80.32-139.09 80.32 139.1 80.31z" fill="#4514CA" p-id="1046"></path><path d="M490.7 821.57v38.73l-139.1-80.32v-38.72l139.1 80.31z" fill="#6410C6" p-id="1047"></path><path d="M469.64 474.67v271.19c0 7 9.43 12.69 21.06 12.69s21.06-5.68 21.06-12.69V474.67z" fill="#7027D8" p-id="1048"></path><path d="M710.19 328.46L453 179.4c-18.9-10.31-44.51-8.84-71.61 7.44-58.82 35.33-100.26 105.75-102.82 174.42l-0.18 0.1v160.1l253.39 146.76V530.76l7.37 3.63z" fill="#6410C6" p-id="1049"></path><path d="M737.79 392.82V389.18c-0.66-61.56-48.86-88.11-103-55.6C576 368.92 534.52 439.34 532 508l-0.18 0.1v160.1l206-118.94V392.82z" fill="#5321DB" p-id="1050"></path><path d="M554.38 515.8l165.44-95.26-0.45 47.42-164.99 95.26V515.8z" fill="#6410C6" p-id="1051"></path><path d="M719.82 420.54l-0.45 47.42-41.06-23.71 41.51-23.71z" fill="#4514CA" p-id="1052"></path><path d="M643.97 643.15l141.67-81.79-79.05-111.41-141.67 82.01 79.05 111.19z" fill="#FF8150" p-id="1053"></path><path d="M564.92 531.96l104.35 5.23 37.32-87.24-141.67 82.01z" fill="#FF9C52" p-id="1054"></path><path d="M305.35 499.46l14.16-3.87c5.64-1.51 7.69-3 7.69-6.66 0-4.05-2.88-8.07-6.64-10.24s-6.34-1.6-9.52 0.67l-5.11-6.94c3.93-3.25 7.81-4.13 15.16 0.11 8 4.65 13.57 12.77 13.57 20.12v0.12c0 6.46-3.41 8-10.69 9.74l-8.46 2.17L335.08 516v6.34l-29.73-17.17zM341.84 505.78v-0.12c0-11.75 7.17-17.13 18-10.89s17.86 19.71 17.86 31.46v0.12c0 11.75-7.17 17.12-18 10.89s-17.86-19.71-17.86-31.46z m28.37 16.38V522c0-8.11-4.17-17.16-10.51-20.82s-10.4 0.46-10.4 8.62v0.2c0 8.11 4.11 17.12 10.52 20.82s10.4-0.55 10.4-8.66zM391.21 520.65l-7.4-2.21-1.53-6.76 11 2.86 5 2.91v41.42l-7.17-4.14zM406.84 552.59v-0.12c0-5 2.76-6.51 7.4-5.77-3.47-3.82-6-8-6-12.62V534c0-6.29 6.05-7.61 14.27-2.86s14.27 13 14.27 19.35v0.12c0 4.58-2.53 5.89-6 5.71 4.46 4.64 7.4 9.27 7.4 14.15v0.12c0 7.34-6.7 8.05-15.69 2.86s-15.65-13.81-15.65-20.86z m24.32 13.57V566c0-3.76-3.76-8.4-8.63-11.22s-8.63-2.51-8.63 1.25v0.11c0 3.35 3.23 8 8.63 11.15s8.63 2.28 8.63-1.13z m-1.29-18.9v-0.12c0-3.17-2.93-7.45-7.34-10s-7.35-1.65-7.35 1.46v0.12c0 3.58 3.11 7.9 7.35 10.35s7.34 1.71 7.34-1.81z" fill="#FFFFFF" p-id="1055"></path></svg>